<?xml version="1.0" encoding="UTF-8"?>
<svg version="1.1" xmlns="http://www.w3.org/2000/svg" width="275" height="275">
<path d="M0 0 C-1.89801563 14.3018495 -3.94404996 28.5750595 -6.16210938 42.83081055 C-6.63598787 45.88327791 -7.10318328 48.93672766 -7.5703125 51.99023438 C-7.87199555 53.93756205 -8.17406312 55.88483021 -8.4765625 57.83203125 C-8.61510651 58.74217484 -8.75365051 59.65231842 -8.89639282 60.59004211 C-9.88554864 66.88554864 -9.88554864 66.88554864 -11 68 C-19.45829229 67.72490163 -27.93196588 66.25705779 -36.30664062 65.10546875 C-49.68006225 63.30781941 -62.77776475 62.86877734 -76.25 62.9375 C-77.97786328 62.94252757 -79.70572798 62.94708824 -81.43359375 62.95117188 C-85.62243168 62.96207203 -89.81119967 62.97926652 -94 63 C-94 64.65 -94 66.3 -94 68 C-92.91847656 68.02578125 -91.83695312 68.0515625 -90.72265625 68.078125 C-71.42649491 68.7182719 -52.16661054 71.27545737 -34 78 C-32.95070312 78.36738281 -31.90140625 78.73476562 -30.8203125 79.11328125 C-18.90696257 83.61559921 -8.7147069 90.83647206 -1 101 C-0.53207031 101.5878125 -0.06414062 102.175625 0.41796875 102.78125 C13.07818246 120.5445037 12.34106589 148.88516787 8.92382812 169.51147461 C5.47548197 186.71339013 -1.9646588 204.13188732 -16.72265625 214.55078125 C-17.47417969 215.02902344 -18.22570312 215.50726563 -19 216 C-19.69996094 216.44730469 -20.39992187 216.89460937 -21.12109375 217.35546875 C-65.21305159 242.19062698 -138.89207987 229.48397964 -185 219 C-183.56120438 205.82571318 -181.37523286 192.79561298 -179.11376953 179.7409668 C-178.4936767 176.15089074 -177.88533852 172.55893919 -177.27734375 168.96679688 C-176.88352252 166.67956513 -176.48901684 164.39245111 -176.09375 162.10546875 C-175.823349 160.49782906 -175.823349 160.49782906 -175.54748535 158.85771179 C-175.37390503 157.86850235 -175.20032471 156.87929291 -175.02148438 155.86010742 C-174.87207397 154.99125412 -174.72266357 154.12240082 -174.56872559 153.22721863 C-174 151 -174 151 -172 148 C-171.23034912 148.17128418 -170.46069824 148.34256836 -169.66772461 148.51904297 C-139.11932882 155.28422789 -108.34135397 159.702776 -77 156 C-77 154.35 -77 152.7 -77 151 C-77.55123535 150.98541748 -78.1024707 150.97083496 -78.67041016 150.95581055 C-106.55863385 150.14233216 -142.51863518 148.68966833 -164 128 C-180.37848619 110.59529287 -181.68608017 86.69080785 -181.13623047 64.14355469 C-180.21877009 42.97290984 -175.08479207 21.89435135 -159 7 C-150.75728957 0.91122412 -141.93201518 -4.00121527 -131.875 -6.125 C-130.72427002 -6.3720166 -130.72427002 -6.3720166 -129.55029297 -6.62402344 C-88.00630634 -15.01758745 -40.79571994 -9.93124943 0 0 Z " fill="#345D84" transform="translate(224,27)"/>
<path d="M0 0 C-1.89801563 14.3018495 -3.94404996 28.5750595 -6.16210938 42.83081055 C-6.63598787 45.88327791 -7.10318328 48.93672766 -7.5703125 51.99023438 C-7.87199555 53.93756205 -8.17406312 55.88483021 -8.4765625 57.83203125 C-8.61510651 58.74217484 -8.75365051 59.65231842 -8.89639282 60.59004211 C-9.88554864 66.88554864 -9.88554864 66.88554864 -11 68 C-19.45829229 67.72490163 -27.93196588 66.25705779 -36.30664062 65.10546875 C-49.68006225 63.30781941 -62.77776475 62.86877734 -76.25 62.9375 C-77.97786328 62.94252757 -79.70572798 62.94708824 -81.43359375 62.95117188 C-85.62243168 62.96207203 -89.81119967 62.97926652 -94 63 C-94 64.65 -94 66.3 -94 68 C-92.91847656 68.02578125 -91.83695312 68.0515625 -90.72265625 68.078125 C-71.42649491 68.7182719 -52.16661054 71.27545737 -34 78 C-32.95070312 78.36738281 -31.90140625 78.73476562 -30.8203125 79.11328125 C-18.90696257 83.61559921 -8.7147069 90.83647206 -1 101 C-0.53207031 101.5878125 -0.06414062 102.175625 0.41796875 102.78125 C13.07818246 120.5445037 12.34106589 148.88516787 8.92382812 169.51147461 C5.47548197 186.71339013 -1.9646588 204.13188732 -16.72265625 214.55078125 C-17.47417969 215.02902344 -18.22570312 215.50726563 -19 216 C-19.69996094 216.44730469 -20.39992187 216.89460937 -21.12109375 217.35546875 C-65.21305159 242.19062698 -138.89207987 229.48397964 -185 219 C-183.56120438 205.82571318 -181.37523286 192.79561298 -179.11376953 179.7409668 C-178.4936767 176.15089074 -177.88533852 172.55893919 -177.27734375 168.96679688 C-176.88352252 166.67956513 -176.48901684 164.39245111 -176.09375 162.10546875 C-175.823349 160.49782906 -175.823349 160.49782906 -175.54748535 158.85771179 C-175.37390503 157.86850235 -175.20032471 156.87929291 -175.02148438 155.86010742 C-174.87207397 154.99125412 -174.72266357 154.12240082 -174.56872559 153.22721863 C-174 151 -174 151 -172 148 C-171.23034912 148.17128418 -170.46069824 148.34256836 -169.66772461 148.51904297 C-139.11932882 155.28422789 -108.34135397 159.702776 -77 156 C-77 154.35 -77 152.7 -77 151 C-77.55123535 150.98541748 -78.1024707 150.97083496 -78.67041016 150.95581055 C-106.55863385 150.14233216 -142.51863518 148.68966833 -164 128 C-180.37848619 110.59529287 -181.68608017 86.69080785 -181.13623047 64.14355469 C-180.21877009 42.97290984 -175.08479207 21.89435135 -159 7 C-150.75728957 0.91122412 -141.93201518 -4.00121527 -131.875 -6.125 C-130.72427002 -6.3720166 -130.72427002 -6.3720166 -129.55029297 -6.62402344 C-88.00630634 -15.01758745 -40.79571994 -9.93124943 0 0 Z M-155.25 22.25 C-166.49257176 35.45946304 -168.19265124 53.33568684 -168.24023438 70.00366211 C-168.2498623 72.03347003 -168.28091523 74.0622289 -168.3125 76.09179688 C-168.44984984 93.03375828 -165.2354817 107.3612827 -153.36328125 119.81640625 C-149.83649116 123.07504371 -146.40118412 125.11652383 -142 127 C-140.25396484 127.75410156 -140.25396484 127.75410156 -138.47265625 128.5234375 C-123.50790104 134.69569314 -108.15844673 136.19417292 -92.1875 137.6875 C-91.1234343 137.78797134 -91.1234343 137.78797134 -90.03787231 137.89047241 C-87.95680306 138.08381058 -85.87513722 138.26813612 -83.79296875 138.44921875 C-82.5814917 138.55580811 -81.37001465 138.66239746 -80.12182617 138.7722168 C-74.75553574 139.06877244 -69.37447842 139 -64 139 C-64 148.57 -64 158.14 -64 168 C-72.66180584 168.61870042 -81.17579008 169.17920111 -89.8359375 169.2734375 C-90.90742538 169.28569366 -91.97891327 169.29794983 -93.08287048 169.31057739 C-96.51360379 169.34230883 -99.94414897 169.36131345 -103.375 169.375 C-104.54332367 169.38055908 -105.71164734 169.38611816 -106.91537476 169.3918457 C-126.04651425 169.43774064 -144.3041105 168.09319579 -163 164 C-163.8422756 168.63962767 -164.67817323 173.28034618 -165.50854492 177.92211914 C-165.79103544 179.49631643 -166.07517334 181.07021912 -166.36108398 182.64379883 C-167.95285638 191.4110916 -169.44543594 200.09162918 -170 209 C-132.71953741 215.78722191 -91.67775964 220.33774439 -54 214 C-52.89736816 213.8146167 -52.89736816 213.8146167 -51.77246094 213.62548828 C-37.02648241 210.98427415 -23.19793223 206.08337783 -14.20703125 193.48828125 C-5.15022858 179.33340628 -2.81677396 163.43901593 -2.75 146.9375 C-2.729375 145.69033203 -2.70875 144.44316406 -2.6875 143.15820312 C-2.62309094 127.67587474 -5.80071712 114.47086903 -16.375 102.8125 C-34.64386954 85.60863182 -62.38677523 83.17656937 -86.125 80.8125 C-86.96514648 80.72846924 -87.80529297 80.64443848 -88.67089844 80.55786133 C-94.51736472 80.02156806 -100.07635518 80 -106 80 C-106 70.76 -106 61.52 -106 52 C-83.22972041 50.1964135 -61.60032109 48.93470332 -38.91552734 51.93237305 C-37.88508301 52.06812744 -36.85463867 52.20388184 -35.79296875 52.34375 C-34.8908667 52.46943359 -33.98876465 52.59511719 -33.05932617 52.72460938 C-29.03353702 53.08699786 -25.03896468 53.05279282 -21 53 C-20.13935905 47.84149514 -19.28506354 42.68199358 -18.43652344 37.52148438 C-18.14723261 35.76761828 -17.85623739 34.0140324 -17.56347656 32.26074219 C-17.14194988 29.73444964 -16.72664795 27.20719884 -16.3125 24.6796875 C-16.18125732 23.90132538 -16.05001465 23.12296326 -15.91479492 22.3210144 C-15.24031116 18.16424243 -14.85884482 14.22877398 -15 10 C-54.62452588 1.20942388 -124.01357867 -10.26374711 -155.25 22.25 Z " fill="#000000" transform="translate(224,27)"/>
</svg>
