<?xml version="1.0" encoding="UTF-8"?>
<svg version="1.1" xmlns="http://www.w3.org/2000/svg" width="275" height="275">
<path d="M0 0 C90.75 0 181.5 0 275 0 C275 90.75 275 181.5 275 275 C184.25 275 93.5 275 0 275 C0 184.25 0 93.5 0 0 Z " fill="#FEFEFE" transform="translate(0,0)"/>
<path d="M0 0 C90.75 0 181.5 0 275 0 C275 90.75 275 181.5 275 275 C184.25 275 93.5 275 0 275 C0 184.25 0 93.5 0 0 Z M93 19 C93 19.66 93 20.32 93 21 C91.72125 21.2475 90.4425 21.495 89.125 21.75 C81.06682989 23.56753679 74.63438926 25.77251713 69 32 C67.71921718 32.91132624 66.42638149 33.80583887 65.125 34.6875 C51.80130402 44.73651648 46.92102994 64.43987066 44.66357422 80.37475586 C42.70696738 97.76854208 41.95895537 118.51725784 48.28125 135.11328125 C49 137 49 137 50 140.75 C51.92816332 147.01653079 55.13351067 150.22540097 60.0625 154.3515625 C64.79174484 158.37523452 64.79174484 158.37523452 66 162 C83.56521006 176.98209093 113.12920883 177.86208311 134.98046875 178.82666016 C138.37661902 179.02162027 141.65122532 179.41695441 145 180 C145.495 182.475 145.495 182.475 146 185 C79.99103703 185.77805469 79.99103703 185.77805469 65 178 C62.33290931 177.83249586 62.33290931 177.83249586 60 178 C60 177.34 60 176.68 60 176 C56.7 176 53.4 176 50 176 C48.22072028 179.9547856 47.46178978 183.64834613 46.875 187.9375 C46.70742188 189.12214844 46.53984375 190.30679688 46.3671875 191.52734375 C46.02968033 194.71929984 45.93147181 197.79385952 46 201 C45.34 201 44.68 201 44 201 C40.0061814 208.98763721 40.70875083 221.31106657 41 230 C40.34 230 39.68 230 39 230 C37.41735422 235.53926023 36.5111852 240.2319853 37 246 C40.48479881 250.5633322 46.18755497 250.60654984 51.53244019 251.35427856 C54.26784605 251.68535732 57.00475562 251.97627859 59.74609375 252.25390625 C60.75607925 252.35968491 61.76606476 252.46546356 62.80665588 252.57444763 C64.93683904 252.7962436 67.06729389 253.01544399 69.19799805 253.23217773 C72.39775939 253.55844777 75.59634269 253.89478174 78.79492188 254.23242188 C97.9499244 256.22858544 116.89189298 257.20431603 136.15161133 257.24023438 C139.32594036 257.25004152 142.49964697 257.28124412 145.67382812 257.3125 C157.2039378 257.37239843 167.84874626 257.26108935 178.70825195 252.91650391 C180.95945715 252.01621368 182.59957011 251.74689683 185 251.625 C192.53507509 250.92848045 200.33425031 248.59918204 207 245 C207 244.34 207 243.68 207 243 C207.99 242.67 208.98 242.34 210 242 C210 241.34 210 240.68 210 240 C210.99 239.67 211.98 239.34 213 239 C214.54531707 237.04848529 215.93920376 235.12913343 217.3125 233.0625 C217.70840332 232.47710449 218.10430664 231.89170898 218.51220703 231.28857422 C228.1574576 216.91272572 234.10101779 204.09528198 234.203125 186.546875 C234.20882507 185.765401 234.21452515 184.983927 234.22039795 184.17877197 C234.22978176 182.53504767 234.23635533 180.89130511 234.24023438 179.24755859 C234.24992116 176.7701637 234.28099974 174.29360662 234.3125 171.81640625 C234.37306534 162.7700896 233.83742846 154.68430339 231 146 C230.42185547 144.12054688 230.42185547 144.12054688 229.83203125 142.203125 C229.49558594 141.22859375 229.15914062 140.2540625 228.8125 139.25 C228.29623047 137.74179688 228.29623047 137.74179688 227.76953125 136.203125 C227.51558594 135.47609375 227.26164063 134.7490625 227 134 C226.34 134 225.68 134 225 134 C224.7525 133.46375 224.505 132.9275 224.25 132.375 C220.81181265 125.84244403 216.60039577 121.65246886 211 117 C210.48179687 116.52175781 209.96359375 116.04351562 209.4296875 115.55078125 C203.88049463 110.50192544 197.07482037 108.91609718 190 107 C190 106.34 190 105.68 190 105 C170.83718953 98.95275572 152.06194928 95.82290881 132 95 C132 94.01 132 93.02 132 92 C176.88924485 91.48832952 176.88924485 91.48832952 197.83203125 94.5625 C201.07803754 95.01077707 204.16328489 95.09928893 207.4375 95.0625 C208.48808594 95.05347656 209.53867188 95.04445313 210.62109375 95.03515625 C211.79865234 95.01775391 211.79865234 95.01775391 213 95 C213.185625 93.4840625 213.185625 93.4840625 213.375 91.9375 C214 88 214 88 215 84.875 C216.67465857 79.43860837 216.67753492 73.64313889 217 68 C217.66 68 218.32 68 219 68 C219.11069824 67.44650879 219.22139648 66.89301758 219.33544922 66.32275391 C220.20019531 61.99902344 221.06494141 57.67529297 221.9296875 53.3515625 C222.105 52.46960205 222.2803125 51.5876416 222.4609375 50.67895508 C222.82235856 48.88281683 223.19225255 47.08836411 223.5703125 45.2956543 C224.46177235 41.02500445 225.27879196 36.94607597 225.25 32.5625 C225.25515625 31.75941406 225.2603125 30.95632812 225.265625 30.12890625 C225.1239426 27.70121369 225.1239426 27.70121369 223 25 C220.32755448 24.15337408 217.79568588 23.50370986 215.0625 22.9375 C214.37220703 22.77701172 213.68191406 22.61652344 212.97070312 22.45117188 C197.4207081 19.08718511 181.21944531 18.57104164 165.375 17.875 C164.45189026 17.83330688 163.52878052 17.79161377 162.57769775 17.74865723 C127.6868061 15.91142586 127.6868061 15.91142586 93 19 Z " fill="#8387E2" transform="translate(0,0)"/>
<path d="M0 0 C1.33559967 0.05867249 1.33559967 0.05867249 2.69818115 0.11853027 C34.59148309 1.55278178 34.59148309 1.55278178 49.6875 5.0625 C50.82155273 5.29743164 50.82155273 5.29743164 51.97851562 5.53710938 C57.37480256 6.74970384 57.37480256 6.74970384 59.625 10.125 C61.05381083 17.98345956 58.4444406 26.07198809 56.6484375 33.671875 C55.36866909 39.11263906 54.44858996 44.59827787 53.625 50.125 C52.965 50.125 52.305 50.125 51.625 50.125 C51.58761719 50.90101562 51.55023438 51.67703125 51.51171875 52.4765625 C50.99529972 60.96203593 49.59451841 68.86293222 47.625 77.125 C38.06645514 77.48798272 28.69047465 76.58698323 19.1875 75.66015625 C18.27194336 75.57258057 17.35638672 75.48500488 16.41308594 75.39477539 C14.57700273 75.21711585 12.74165977 75.03160335 10.90722656 74.83764648 C1.72899026 73.94500994 -7.41467928 74.01265857 -16.625 74.0625 C-18.25650903 74.06752851 -19.88801958 74.07208901 -21.51953125 74.07617188 C-25.4713923 74.08706243 -29.42317892 74.10425134 -33.375 74.125 C-33.375 75.115 -33.375 76.105 -33.375 77.125 C-32.00794922 77.18107422 -32.00794922 77.18107422 -30.61328125 77.23828125 C-14.4440694 78.05880842 1.25947251 79.87660035 16.625 85.125 C19.28190907 85.84997976 21.94384946 86.49414105 24.625 87.125 C24.625 87.785 24.625 88.445 24.625 89.125 C26.048125 89.49625 26.048125 89.49625 27.5 89.875 C30.69045989 90.80147301 33.82015752 91.85079102 36.9375 93 C37.77925781 93.30679688 38.62101563 93.61359375 39.48828125 93.9296875 C41.99800232 95.33366309 42.6222456 96.47684196 43.625 99.125 C43.13 98.856875 42.635 98.58875 42.125 98.3125 C39.4662274 97.04958302 36.77639212 96.01889416 34.015625 95.00390625 C31.97690903 94.25437832 29.94823105 93.47763984 27.921875 92.6953125 C23.54996256 91.05406524 19.11192368 89.72447724 14.625 88.4375 C13.85027344 88.21255859 13.07554687 87.98761719 12.27734375 87.75585938 C10.39403154 87.20946633 8.50962976 86.66683106 6.625 86.125 C6.625 85.465 6.625 84.805 6.625 84.125 C5.98175781 84.04459473 5.33851563 83.96418945 4.67578125 83.88134766 C3.77214844 83.76839355 2.86851562 83.65543945 1.9375 83.5390625 C0.93541504 83.4138623 -0.06666992 83.28866211 -1.09912109 83.15966797 C-3.28961091 82.8857343 -5.48004034 82.61131736 -7.67041016 82.33642578 C-12.59931477 81.71840185 -17.5282753 81.10298939 -22.4609375 80.515625 C-23.19570312 80.42716309 -23.93046875 80.33870117 -24.6875 80.24755859 C-26.63251407 80.01410165 -28.5779632 79.78427763 -30.5234375 79.5546875 C-33.375 79.125 -33.375 79.125 -35.375 78.125 C-35.045 76.475 -34.715 74.825 -34.375 73.125 C-22.53697002 72.1542996 -10.7493266 71.8888225 1.125 71.875 C2.04488708 71.87266357 2.96477417 71.87032715 3.91253662 71.86791992 C18.04047998 71.85439712 31.69840918 72.55393708 45.625 75.125 C45.74617187 74.21878906 45.86734375 73.31257813 45.9921875 72.37890625 C46.15976563 71.16074219 46.32734375 69.94257812 46.5 68.6875 C46.74363281 66.89505859 46.74363281 66.89505859 46.9921875 65.06640625 C47.43447092 62.31169038 47.9362059 59.68627979 48.5703125 56.98046875 C49.64911724 52.17947241 50.42241635 47.36346402 51.1328125 42.49609375 C51.26315887 41.62098648 51.39350525 40.74587921 51.52780151 39.84425354 C51.93822224 37.08410705 52.34418757 34.32332738 52.75 31.5625 C53.02965197 29.67638839 53.30959719 27.79032023 53.58984375 25.90429688 C54.27161699 21.31169282 54.94939884 16.71851589 55.625 12.125 C46.17933704 9.96689392 36.80144086 8.28375395 27.1875 7.0625 C26.20345184 6.93651428 26.20345184 6.93651428 25.19952393 6.8079834 C-6.14914842 2.83456525 -39.42492056 -0.41761578 -70.37890625 7.46875 C-74.46857132 8.36453061 -78.52492956 8.60951143 -82.6953125 8.875 C-86.13523141 9.19592538 -89.11313432 10.01300034 -92.375 11.125 C-89.6830898 7.75021552 -86.37052395 6.82344737 -82.375 5.4375 C-81.1375 5.00050781 -79.9 4.56351563 -78.625 4.11328125 C-75.375 3.125 -75.375 3.125 -72.375 3.125 C-72.375 2.465 -72.375 1.805 -72.375 1.125 C-48.65897041 -2.93026002 -23.92071057 -1.08040128 0 0 Z " fill="#DBDDF6" transform="translate(165.375,17.875)"/>
<path d="M0 0 C7.324956 1.99771527 12.32744316 8.68320223 16 15 C16 15.66 16 16.32 16 17 C16.66 17 17.32 17 18 17 C18.61049167 18.74780356 19.21292161 20.49842268 19.8125 22.25 C20.14894531 23.22453125 20.48539063 24.1990625 20.83203125 25.203125 C21.41017578 27.08257812 21.41017578 27.08257812 22 29 C22.26312988 29.8053418 22.52625977 30.61068359 22.79736328 31.44042969 C25.32883932 40.07475874 25.39459377 48.36050071 25.28125 57.27392578 C25.24987893 59.75959285 25.2402413 62.2446224 25.234375 64.73046875 C25.22520954 66.33594513 25.21483523 67.94141516 25.203125 69.546875 C25.19887512 70.2772699 25.19462524 71.00766479 25.19024658 71.76019287 C24.95002853 89.29812544 18.15969404 101.99481429 8 116 C7.26523437 117.07894531 7.26523437 117.07894531 6.515625 118.1796875 C5.39428316 119.82212349 4.20421281 121.4173203 3 123 C2.34 123 1.68 123 1 123 C0.67 123.99 0.34 124.98 0 126 C-0.66 126 -1.32 126 -2 126 C-2 126.66 -2 127.32 -2 128 C-9.54468246 131.5976958 -16.70092456 133.65509648 -24.9375 134.9375 C-29.45764873 135.65570774 -33.58978397 136.69770256 -37.8671875 138.31640625 C-43.84375184 140.23197174 -49.86055081 140.1598437 -56.06640625 140.16796875 C-57.04453278 140.17220352 -58.0226593 140.17643829 -59.03042603 140.18080139 C-62.20782753 140.1907038 -65.38508574 140.19071658 -68.5625 140.1875 C-70.19307846 140.18659363 -70.19307846 140.18659363 -71.8565979 140.18566895 C-88.99390002 140.1597615 -105.93541909 139.6832935 -123 138 C-124.53887009 137.85336685 -126.07777174 137.70706477 -127.61669922 137.56103516 C-132.6216569 137.0824094 -137.62353416 136.57617838 -142.625 136.0625 C-143.81142593 135.94352356 -143.81142593 135.94352356 -145.02182007 135.82214355 C-163.95748484 133.89820298 -163.95748484 133.89820298 -171 131 C-173.76671741 125.46656517 -171.60202865 118.60710027 -170 113 C-169.34 113 -168.68 113 -168 113 C-168.02320313 112.30777344 -168.04640625 111.61554688 -168.0703125 110.90234375 C-168.43964422 90.87928844 -168.43964422 90.87928844 -165 84 C-164.34 84 -163.68 84 -163 84 C-162.95101562 83.18917969 -162.90203125 82.37835938 -162.8515625 81.54296875 C-161.49812734 61.49812734 -161.49812734 61.49812734 -159 59 C-157.31391034 58.92794489 -155.62499341 58.91613932 -153.9375 58.9375 C-153.01839844 58.94652344 -152.09929687 58.95554688 -151.15234375 58.96484375 C-150.44207031 58.97644531 -149.73179687 58.98804688 -149 59 C-149 59.66 -149 60.32 -149 61 C-145.535 61.495 -145.535 61.495 -142 62 C-146 63 -146 63 -157 62 C-158.32 69.92 -159.64 77.84 -161 86 C-161.66 86 -162.32 86 -163 86 C-163.04898438 86.67804688 -163.09796875 87.35609375 -163.1484375 88.0546875 C-163.22320312 88.98539062 -163.29796875 89.91609375 -163.375 90.875 C-163.44460937 91.77992188 -163.51421875 92.68484375 -163.5859375 93.6171875 C-163.92426941 96.38129535 -164.408984 98.97334371 -165 101.6875 C-166.1296555 107.1630913 -166.43700248 112.54774022 -166.625 118.125 C-166.66367188 119.08148438 -166.70234375 120.03796875 -166.7421875 121.0234375 C-166.83520128 123.34878199 -166.92103771 125.67414335 -167 128 C-150.10007195 132.34607732 -133.34649547 134.75127021 -115.9375 135.75 C-114.461035 135.84006317 -114.461035 135.84006317 -112.95474243 135.9319458 C-99.37081553 136.75486626 -85.79661336 137.30192895 -72.1875 137.375 C-71.47866669 137.38285522 -70.76983337 137.39071045 -70.03952026 137.39880371 C-60.68500866 137.4805732 -51.9564732 136.47878382 -42.79174805 134.70410156 C-38.45979777 133.89968816 -34.1985191 133.50086347 -29.8125 133.1875 C-19.83166255 132.26703284 -10.00622365 129.57099549 -3 122 C-2.071875 121.29875 -1.14375 120.5975 -0.1875 119.875 C6.94053156 113.98897394 11.19353744 105.24441199 15 97 C15.99 97 16.98 97 18 97 C21.44555664 84.82518062 22.54519854 73.68093209 22.3125 61.0625 C22.30095916 59.44206896 22.29118886 57.82162433 22.28320312 56.20117188 C22.66998487 42.37314717 22.66998487 42.37314717 19.4375 29.1875 C18.04129036 26.09155688 17.69719621 24.33084172 18 21 C17.01 20.67 16.02 20.34 15 20 C13.31640625 17.671875 13.31640625 17.671875 11.5625 14.75 C7.56986579 7.42562635 7.56986579 7.42562635 1 3 C0.67 2.01 0.34 1.02 0 0 Z " fill="#CECFF3" transform="translate(209,117)"/>
<path d="M0 0 C1.33559967 0.05867249 1.33559967 0.05867249 2.69818115 0.11853027 C34.59148309 1.55278178 34.59148309 1.55278178 49.6875 5.0625 C50.82155273 5.29743164 50.82155273 5.29743164 51.97851562 5.53710938 C57.37480256 6.74970384 57.37480256 6.74970384 59.625 10.125 C61.05381083 17.98345956 58.4444406 26.07198809 56.6484375 33.671875 C55.36866909 39.11263906 54.44858996 44.59827787 53.625 50.125 C53.295 50.125 52.965 50.125 52.625 50.125 C53.06873016 41.60232064 54.12631909 33.32462812 55.60864258 24.92651367 C56.46223235 19.91411223 56.75838068 15.21086319 56.625 10.125 C55.80515625 10.00382812 54.9853125 9.88265625 54.140625 9.7578125 C53.06296875 9.59023438 51.9853125 9.42265625 50.875 9.25 C49.80765625 9.08757813 48.7403125 8.92515625 47.640625 8.7578125 C44.625 8.125 44.625 8.125 42.7890625 7.1171875 C39.27440508 5.50577417 35.57237431 5.44803828 31.75 5.125 C29.91274135 4.96115115 28.07550237 4.79708168 26.23828125 4.6328125 C25.29678223 4.55063477 24.3552832 4.46845703 23.38525391 4.38378906 C20.86834422 4.14781487 18.36431952 3.86338864 15.85546875 3.5546875 C-16.72112694 -0.25420747 -53.99809613 -1.09378289 -85.375 9.125 C-87.70334975 9.81092226 -90.03785788 10.46938611 -92.375 11.125 C-89.6830898 7.75021552 -86.37052395 6.82344737 -82.375 5.4375 C-81.1375 5.00050781 -79.9 4.56351563 -78.625 4.11328125 C-75.375 3.125 -75.375 3.125 -72.375 3.125 C-72.375 2.465 -72.375 1.805 -72.375 1.125 C-48.65897041 -2.93026002 -23.92071057 -1.08040128 0 0 Z " fill="#B4B6ED" transform="translate(165.375,17.875)"/>
<path d="M0 0 C0.64453125 1.796875 0.64453125 1.796875 1 4 C-1.3125 7.25 -1.3125 7.25 -4 10 C-4.66 10 -5.32 10 -6 10 C-6.226875 10.598125 -6.45375 11.19625 -6.6875 11.8125 C-8.33811133 14.56351888 -10.1972081 15.52484637 -13 17 C-13 16.34 -13 15.68 -13 15 C-12.26394531 14.41734375 -11.52789062 13.8346875 -10.76953125 13.234375 C-7.78642343 10.82769281 -5.88509021 8.37877251 -3.6875 5.25 C-2.99011719 4.26515625 -2.29273438 3.2803125 -1.57421875 2.265625 C-1.05472656 1.51796875 -0.53523437 0.7703125 0 0 Z M-16 17 C-15.01 17.33 -14.02 17.66 -13 18 C-22.4596842 22.99645115 -30.1774724 26.51535846 -41 26 C-41 26.66 -41 27.32 -41 28 C-46.88087527 29.48828047 -52.72353407 30.22262073 -58.7734375 30.5546875 C-59.88275383 30.61702324 -59.88275383 30.61702324 -61.01448059 30.68061829 C-69.23785199 31.11017999 -77.45437617 31.19633874 -85.6875 31.1875 C-86.47505676 31.18789276 -87.26261353 31.18828552 -88.07403564 31.18869019 C-138.84129525 31.15870475 -138.84129525 31.15870475 -143 27 C-146.45958443 26.71131944 -149.91951431 26.55098503 -153.38671875 26.37890625 C-156.87169503 26.01345468 -159.73507892 25.23876422 -163 24 C-159.08910978 22.59689447 -155.38779961 23.23549974 -151.3671875 23.7421875 C-150.6164798 23.83001495 -149.86577209 23.91784241 -149.09231567 24.0083313 C-146.68567717 24.29040614 -144.28030234 24.58176471 -141.875 24.875 C-122.49783527 27.22435572 -103.37167957 28.20382448 -83.84838867 28.24023438 C-80.67405964 28.25004152 -77.50035303 28.28124412 -74.32617188 28.3125 C-62.7960622 28.37239843 -52.15125374 28.26108935 -41.29174805 23.91650391 C-39.04054285 23.01621368 -37.40042989 22.74689683 -35 22.625 C-29.52703572 22.12577691 -19.98678722 20.98678722 -16 17 Z " fill="#989BE7" transform="translate(220,228)"/>
<path d="M0 0 C0.66 0.33 1.32 0.66 2 1 C0.37982158 2.33918806 -1.24629343 3.6711969 -2.875 5 C-3.77992187 5.7425 -4.68484375 6.485 -5.6171875 7.25 C-8 9 -8 9 -10 9 C-10.2475 9.721875 -10.495 10.44375 -10.75 11.1875 C-12 14 -12 14 -13.8515625 16.03515625 C-16.82409108 20.13724569 -18.10426033 24.45226821 -19.625 29.25 C-19.9240625 30.15363281 -20.223125 31.05726562 -20.53125 31.98828125 C-27.79040036 54.31177461 -30.23383471 83.7757577 -21.72265625 106.1015625 C-20.98961063 108.02729315 -20.4541711 109.94404459 -19.9375 111.9375 C-19.23946465 115.0733055 -19.23946465 115.0733055 -17 117 C-17 117.99 -17 118.98 -17 120 C-16.42765625 120.24878906 -15.8553125 120.49757813 -15.265625 120.75390625 C-12.66499322 122.18425373 -10.85253401 123.84664674 -8.75 125.9375 C-8.04359375 126.62714844 -7.3371875 127.31679687 -6.609375 128.02734375 C-5 130 -5 130 -5 133 C-11.40874025 131.94116465 -14.39398631 126.1163358 -18.08984375 121.24609375 C-32.01069639 100.94809074 -30.65588674 71.06110354 -27.75 47.6875 C-27.64075195 46.76437012 -27.53150391 45.84124023 -27.41894531 44.89013672 C-26.6405098 39.26027045 -25.18140079 34.39771053 -22.88671875 29.19628906 C-22.04970511 27.12311321 -21.59472864 25.2631618 -21.25 23.0625 C-19.26996912 14.70236961 -13.11032524 8.34412877 -6.0625 3.875 C-4.38012744 2.90769363 -2.69402622 1.94674928 -1 1 C-0.67 0.67 -0.34 0.34 0 0 Z " fill="#BFC1F0" transform="translate(71,29)"/>
<path d="M0 0 C3.13061707 0.42690233 6.24578446 0.85622424 9.35009766 1.44799805 C15.69231935 2.63018264 21.98657393 3.30087859 28.4140625 3.74609375 C29.24228516 3.80396057 30.07050781 3.86182739 30.92382812 3.92144775 C34.37295965 4.15797904 37.82234861 4.38769506 41.27294922 4.60180664 C43.82100111 4.76244984 46.36735976 4.94047665 48.9140625 5.12109375 C49.69729889 5.16495712 50.48053528 5.2088205 51.2875061 5.25401306 C53.47509766 5.41577148 53.47509766 5.41577148 57 6 C59 9 59 9 58.6875 11.5625 C58 14 58 14 57 16 C50.08007658 17.10973236 43.18443443 17.19230999 36.1875 17.1875 C35.0747168 17.18741943 33.96193359 17.18733887 32.81542969 17.18725586 C17.9416827 17.08888452 2.67127679 16.59503979 -12 14 C-12 13.34 -12 12.68 -12 12 C-13.32 11.67 -14.64 11.34 -16 11 C-15.34588135 11.05986084 -14.6917627 11.11972168 -14.01782227 11.18139648 C-12.07592285 11.35858773 -10.13393918 11.53485692 -8.19189453 11.71044922 C-6.16399109 11.89440925 -4.13629376 12.08066704 -2.10888672 12.27001953 C17.29798754 14.04797342 36.53211154 14.22947008 56 14 C55.505 11.525 55.505 11.525 55 9 C52.02127384 8.682721 49.04219975 8.37041853 46.0625 8.0625 C44.69955811 7.92001831 44.69955811 7.92001831 43.30908203 7.7746582 C38.3417735 7.27307189 33.41263947 6.90994292 28.42333984 6.75537109 C18.456523 6.42512377 9.47603703 4.00351583 0 1 C0 0.67 0 0.34 0 0 Z " fill="#DCDDF6" transform="translate(90,171)"/>
<path d="M0 0 C2.09248947 -0.00219646 4.18445755 -0.02048923 6.27685547 -0.03930664 C15.54763132 -0.07630842 24.43327447 0.72404302 33.59326172 2.18530273 C33.59326172 2.51530273 33.59326172 2.84530273 33.59326172 3.18530273 C31.34333532 3.21296576 29.0933026 3.23198919 26.84326172 3.24780273 C25.59029297 3.2594043 24.33732422 3.27100586 23.04638672 3.28295898 C19.74248823 3.25907812 16.50608617 3.0057263 13.21826172 2.68530273 C4.93352039 1.94918609 -3.34744849 2.07783721 -11.65673828 2.12280273 C-13.28824731 2.12783125 -14.91975786 2.13239175 -16.55126953 2.13647461 C-20.50313058 2.14736516 -24.4549172 2.16455408 -28.40673828 2.18530273 C-28.40673828 3.17530273 -28.40673828 4.16530273 -28.40673828 5.18530273 C-27.0396875 5.24137695 -27.0396875 5.24137695 -25.64501953 5.29858398 C-9.47580769 6.11911115 6.22773423 7.93690308 21.59326172 13.18530273 C24.25017078 13.91028249 26.91211118 14.55444378 29.59326172 15.18530273 C29.59326172 15.84530273 29.59326172 16.50530273 29.59326172 17.18530273 C30.54201172 17.43280273 31.49076172 17.68030273 32.46826172 17.93530273 C35.65872161 18.86177575 38.78841924 19.91109375 41.90576172 21.06030273 C42.74751953 21.36709961 43.58927734 21.67389648 44.45654297 21.98999023 C46.96626404 23.39396582 47.59050731 24.53714469 48.59326172 27.18530273 C48.09826172 26.91717773 47.60326172 26.64905273 47.09326172 26.37280273 C44.43448912 25.10988575 41.74465384 24.0791969 38.98388672 23.06420898 C36.94517075 22.31468106 34.91649277 21.53794257 32.89013672 20.75561523 C28.51822428 19.11436797 24.0801854 17.78477998 19.59326172 16.49780273 C18.81853516 16.27286133 18.04380859 16.04791992 17.24560547 15.81616211 C15.36229326 15.26976906 13.47789148 14.72713379 11.59326172 14.18530273 C11.59326172 13.52530273 11.59326172 12.86530273 11.59326172 12.18530273 C10.95001953 12.10489746 10.30677734 12.02449219 9.64404297 11.94165039 C8.74041016 11.82869629 7.83677734 11.71574219 6.90576172 11.59936523 C5.40263428 11.41156494 5.40263428 11.41156494 3.86914062 11.2199707 C1.67865081 10.94603704 -0.51177862 10.67162009 -2.70214844 10.39672852 C-7.63105305 9.77870459 -12.56001358 9.16329213 -17.49267578 8.57592773 C-18.22744141 8.48746582 -18.96220703 8.39900391 -19.71923828 8.30786133 C-21.66425235 8.07440438 -23.60970148 7.84458037 -25.55517578 7.61499023 C-28.40673828 7.18530273 -28.40673828 7.18530273 -30.40673828 6.18530273 C-30.07673828 4.53530273 -29.74673828 2.88530273 -29.40673828 1.18530273 C-19.59312966 0.41451225 -9.84277634 -0.00114959 0 0 Z " fill="#BFC1F0" transform="translate(160.40673828125,89.814697265625)"/>
<path d="M0 0 C3.63728577 0.48457261 7.06022354 1.27644863 10.5625 2.33984375 C25.74636081 6.8613418 40.25936262 8.11926091 55.984375 8.83056641 C65.35717962 9.35717962 65.35717962 9.35717962 67 11 C67.04063832 12.66617115 67.042721 14.33388095 67 16 C41.65778159 18.63930822 14.86958014 17.71276726 -10 12 C-10 11.67 -10 11.34 -10 11 C-5.19688709 10.87258139 -0.93225178 11.08327701 3.79898071 12.05766296 C16.35335533 14.63268299 28.86729385 14.33612802 41.625 14.1875 C43.90363689 14.17241076 46.18228356 14.15872994 48.4609375 14.14648438 C53.97417629 14.11385 59.48704053 14.06399394 65 14 C65 13.34 65 12.68 65 12 C63.80246094 11.93941406 62.60492188 11.87882813 61.37109375 11.81640625 C57.96040567 11.64299935 54.55048533 11.45846398 51.140625 11.26953125 C48.14913194 11.10547101 45.16716767 10.97535496 42.171875 10.88671875 C27.7858623 10.32224516 13.54248262 6.78774638 0 2 C0 1.34 0 0.68 0 0 Z " fill="#ABAEEB" transform="translate(79,169)"/>
<path d="M0 0 C1.37478516 0.01740234 1.37478516 0.01740234 2.77734375 0.03515625 C3.69644531 0.04417969 4.61554687 0.05320313 5.5625 0.0625 C6.27277344 0.07410156 6.98304687 0.08570313 7.71484375 0.09765625 C7.71484375 0.75765625 7.71484375 1.41765625 7.71484375 2.09765625 C10.02484375 2.42765625 12.33484375 2.75765625 14.71484375 3.09765625 C10.71484375 4.09765625 10.71484375 4.09765625 -0.28515625 3.09765625 C-1.60515625 11.01765625 -2.92515625 18.93765625 -4.28515625 27.09765625 C-4.94515625 27.09765625 -5.60515625 27.09765625 -6.28515625 27.09765625 C-6.33414063 27.7510498 -6.383125 28.40444336 -6.43359375 29.07763672 C-7.01822621 36.20536478 -8.04740303 43.18181365 -9.28515625 50.22265625 C-10.49769311 57.17277695 -11.58443096 64.07580487 -12.28515625 71.09765625 C-3.87015625 72.58265625 -3.87015625 72.58265625 4.71484375 74.09765625 C4.71484375 74.42765625 4.71484375 74.75765625 4.71484375 75.09765625 C-1.96624904 75.47583131 -8.00680117 74.50307173 -14.28515625 72.09765625 C-17.05187366 66.56422142 -14.8871849 59.70475652 -13.28515625 54.09765625 C-12.62515625 54.09765625 -11.96515625 54.09765625 -11.28515625 54.09765625 C-11.30835938 53.40542969 -11.3315625 52.71320313 -11.35546875 52 C-11.72480047 31.97694469 -11.72480047 31.97694469 -8.28515625 25.09765625 C-7.62515625 25.09765625 -6.96515625 25.09765625 -6.28515625 25.09765625 C-6.23617187 24.28683594 -6.1871875 23.47601563 -6.13671875 22.640625 C-4.62135016 0.1974936 -4.62135016 0.1974936 0 0 Z " fill="#A6A9EA" transform="translate(52.28515625,175.90234375)"/>
<path d="M0 0 C0.33 0 0.66 0 1 0 C1 4.29 1 8.58 1 13 C17.89992805 17.34607732 34.65350453 19.75127021 52.0625 20.75 C53.538965 20.84006317 53.538965 20.84006317 55.04525757 20.9319458 C68.62918447 21.75486626 82.20338664 22.30192895 95.8125 22.375 C96.52133331 22.38285522 97.23016663 22.39071045 97.96047974 22.39880371 C107.33080253 22.48071141 116.1273756 21.52407804 125.30712891 19.71020508 C129.5372351 18.89668009 133.713284 18.38970145 138 18 C134.79906063 21.20093937 130.33842782 21.85960658 125.91796875 22.125 C124.2781164 22.125 122.63843072 22.06826795 121 22 C121 22.66 121 23.32 121 24 C19.45636398 25.22818199 19.45636398 25.22818199 -1 15 C-1.10251672 9.87416389 -1.03590199 5.05002222 0 0 Z " fill="#D3D4F4" transform="translate(41,232)"/>
<path d="M0 0 C3 1 3 1 4.6875 3.5625 C6.28057068 7.73482797 6.22913445 10.57006738 6 15 C6.66 15 7.32 15 8 15 C9.71156279 21.9622013 9.30226867 29.29423503 9.35009766 36.42333984 C9.36646943 38.19951654 9.39350233 39.97563274 9.43212891 41.75146484 C9.83714176 60.53349556 6.28116424 76.60416808 -3 93 C-3.99 93 -4.98 93 -6 93 C-4.20078275 88.24107038 -1.90200658 83.76972191 0.43359375 79.25976562 C5.06115969 70.17345053 6.14475636 61.57825929 6.203125 51.546875 C6.20882507 50.765401 6.21452515 49.983927 6.22039795 49.17877197 C6.22978176 47.53504767 6.23635533 45.89130511 6.24023438 44.24755859 C6.24992116 41.7701637 6.28099974 39.29360662 6.3125 36.81640625 C6.37273693 27.75071917 5.7722989 19.71798776 3 11 C2.68675781 9.81921875 2.37351563 8.6384375 2.05078125 7.421875 C1.80714844 6.54015625 1.56351563 5.6584375 1.3125 4.75 C0.93544922 3.38101563 0.93544922 3.38101563 0.55078125 1.984375 C0.36902344 1.32953125 0.18726563 0.6746875 0 0 Z " fill="#A5A8E9" transform="translate(227,135)"/>
<path d="M0 0 C1.32286514 -0.00149551 1.32286514 -0.00149551 2.67245483 -0.00302124 C28.73291168 0.00031374 28.73291168 0.00031374 36.91015625 2.1875 C42.52515734 3.64979937 48.1722471 3.95670814 53.94335938 4.3984375 C54.80638672 4.47320313 55.66941406 4.54796875 56.55859375 4.625 C57.34032959 4.68558594 58.12206543 4.74617188 58.92749023 4.80859375 C59.52891846 4.93363281 60.13034668 5.05867188 60.75 5.1875 C61.245 6.1775 61.245 6.1775 61.75 7.1875 C54.55864431 6.61171737 47.37562315 5.97060401 40.19462585 5.27754211 C-4.85585336 0.74795452 -4.85585336 0.74795452 -49.4921875 6.58984375 C-53.18605713 7.39035657 -56.48836219 7.40877281 -60.25 7.1875 C-54.70345398 1.64095398 -43.10722809 1.56657179 -35.5625 1 C-34.53866211 0.92031982 -33.51482422 0.84063965 -32.45996094 0.75854492 C-21.64841503 0.03440469 -10.83170407 0.00326537 0 0 Z " fill="#DDDEF7" transform="translate(144.25,18.8125)"/>
<path d="M0 0 C15.07859348 -0.67015971 29.38016748 1.25447469 44 5 C44 5.66 44 6.32 44 7 C45.155 7.020625 46.31 7.04125 47.5 7.0625 C55.15509973 7.84889869 62.12003664 11.7668393 69 15 C69 15.66 69 16.32 69 17 C69.99 17 70.98 17 72 17 C72 17.66 72 18.32 72 19 C72.57234375 19.26554687 73.1446875 19.53109375 73.734375 19.8046875 C76.1076012 21.05676891 78.12213286 22.4936352 80.25 24.125 C80.95640625 24.66382812 81.6628125 25.20265625 82.390625 25.7578125 C83.18726563 26.37269531 83.18726563 26.37269531 84 27 C83.67 28.32 83.34 29.64 83 31 C82.39671875 30.45730469 81.7934375 29.91460937 81.171875 29.35546875 C80.37265625 28.64003906 79.5734375 27.92460938 78.75 27.1875 C77.56664062 26.12595703 77.56664062 26.12595703 76.359375 25.04296875 C74.06825542 22.99415848 74.06825542 22.99415848 71.703125 21.36328125 C71.14109375 20.91339844 70.5790625 20.46351562 70 20 C70 19.34 70 18.68 70 18 C69.443125 17.90203125 68.88625 17.8040625 68.3125 17.703125 C62.6188919 16.58748557 58.09228905 14.77761221 53 12 C53 11.34 53 10.68 53 10 C52.21302734 9.85304688 52.21302734 9.85304688 51.41015625 9.703125 C46.7391115 8.80155896 42.13782763 7.77645314 37.53271484 6.58007812 C25.20430144 3.44096734 12.63552864 2.26486436 0 1 C0 0.67 0 0.34 0 0 Z " fill="#999DE7" transform="translate(137,95)"/>
<path d="M0 0 C0.99 0.495 0.99 0.495 2 1 C2.37580343 3.09077942 2.64877479 5.20029524 2.875 7.3125 C3.77484486 14.27744096 5.562193 20.438871 8 27 C8.2475 27.77472656 8.495 28.54945313 8.75 29.34765625 C10.30315884 34.06890614 12.29436076 36.73550829 16 40 C17.2065625 41.299375 17.2065625 41.299375 18.4375 42.625 C21.12704976 45.11775343 23.66093537 46.52459935 27 48 C27 48.66 27 49.32 27 50 C27.804375 50.2475 28.60875 50.495 29.4375 50.75 C33.74324143 52.26078647 37.85364007 54.10188856 42 56 C42 56.66 42 57.32 42 58 C42.99 58.495 42.99 58.495 44 59 C35.83092295 58.14009715 27.77661914 54.56384555 21 50 C19.94228261 48.36935236 18.94726954 46.69719127 18 45 C13.96550781 40.4138765 13.96550781 40.4138765 9 37 C5.91579994 32.70893904 4.47831705 28.01111575 3 23 C2.71769531 22.05511719 2.43539062 21.11023438 2.14453125 20.13671875 C0.2539588 13.29337902 -0.37662615 7.08615129 0 0 Z " fill="#E9EAF9" transform="translate(45,112)"/>
<path d="M0 0 C1.8282158 2.68855265 2.00257486 3.97047731 1.71484375 7.26953125 C1.47894531 8.50058594 1.24304688 9.73164062 1 11 C0.77441406 12.26199219 0.54882812 13.52398437 0.31640625 14.82421875 C0.06761719 16.09910156 -0.18117188 17.37398437 -0.4375 18.6875 C-0.68371094 19.97011719 -0.92992187 21.25273438 -1.18359375 22.57421875 C-1.85543521 25.39338123 -2.55064781 27.5216705 -4 30 C-9.78401171 30.31549155 -15.0746471 29.71046798 -20.75 28.625 C-40.46806711 24.96067684 -60.01052106 24.72757813 -80 25 C-80 25.66 -80 26.32 -80 27 C-81.65 27 -83.3 27 -85 27 C-85 26.01 -85 25.02 -85 24 C-57.86111211 21.69730648 -30.99981677 23.90866897 -4 27 C-4.01804687 25.90945312 -4.03609375 24.81890625 -4.0546875 23.6953125 C-4.00714044 20.48248946 -3.55011053 18.19587916 -2.578125 15.17578125 C-1.26143964 10.22041811 -0.71678217 5.07085258 0 0 Z " fill="#9EA1E8" transform="translate(217,68)"/>
<path d="M0 0 C0.95406738 -0.00459229 1.90813477 -0.00918457 2.89111328 -0.01391602 C8.67225287 -0.00129785 14.26580919 0.38472537 20 1.125 C20 1.455 20 1.785 20 2.125 C18.66376587 2.16258423 18.66376587 2.16258423 17.30053711 2.20092773 C13.91765183 2.29745652 10.53486123 2.39657684 7.15209961 2.49731445 C5.7025844 2.53998015 4.2530405 2.5816846 2.8034668 2.62231445 C-7.1521477 2.90221892 -17.06689752 3.38911431 -27 4.125 C-27.33 5.445 -27.66 6.765 -28 8.125 C-26.87464844 8.24617188 -25.74929687 8.36734375 -24.58984375 8.4921875 C3.489114 11.54337888 3.489114 11.54337888 14 14.125 C14 14.455 14 14.785 14 15.125 C5.66162276 14.72743622 -2.42383499 14.21934617 -10.6171875 12.51953125 C-12.88671898 12.14375637 -14.83707534 12.11990232 -17.125 12.25 C-22.09790694 12.08958365 -25.63751349 10.38703004 -30 8.125 C-30.04254356 6.12545254 -30.04080783 4.12458364 -30 2.125 C-28.0644453 0.1894453 -24.52043002 0.7078073 -21.875 0.5625 C-21.13378906 0.5207666 -20.39257812 0.4790332 -19.62890625 0.43603516 C-13.08703013 0.10813834 -6.54940033 0.01747213 0 0 Z " fill="#DCDEF7" transform="translate(158,87.875)"/>
<path d="M0 0 C12.85629792 -0.15289948 25.48713709 1.25781841 38.0625 3.9375 C38.83005615 4.09508789 39.5976123 4.25267578 40.38842773 4.41503906 C45.75558464 5.63337697 45.75558464 5.63337697 48 9 C49.42881083 16.85845956 46.8194406 24.94698809 45.0234375 32.546875 C43.74366909 37.98763906 42.82358996 43.47327787 42 49 C41.67 49 41.34 49 41 49 C41.44373016 40.47732064 42.50131909 32.19962812 43.98364258 23.80151367 C44.83723235 18.78911223 45.13338068 14.08586319 45 9 C44.18015625 8.87882812 43.3603125 8.75765625 42.515625 8.6328125 C40.89914063 8.38144531 40.89914063 8.38144531 39.25 8.125 C38.18265625 7.96257813 37.1153125 7.80015625 36.015625 7.6328125 C33 7 33 7 31.08959961 5.99780273 C28.80623098 4.90747354 27.06261661 4.62371772 24.55078125 4.40234375 C23.27750977 4.28342773 23.27750977 4.28342773 21.97851562 4.16210938 C21.09873047 4.08798828 20.21894531 4.01386719 19.3125 3.9375 C17.57938458 3.78041613 15.84631128 3.62286684 14.11328125 3.46484375 C13.26846191 3.38991699 12.42364258 3.31499023 11.55322266 3.23779297 C7.69573466 2.87852797 3.84897311 2.44066257 0 2 C0 1.34 0 0.68 0 0 Z " fill="#A6A9EA" transform="translate(177,19)"/>
<path d="M0 0 C10.42988044 0.91345897 20.8514695 1.8382544 31.25 3.0625 C52.0625168 5.43478186 73.07826091 5.47382655 94 6 C94 6.33 94 6.66 94 7 C86.81822844 7.05148014 79.63650585 7.08605372 72.45458984 7.10986328 C70.02065249 7.11980819 67.58672672 7.13336887 65.15283203 7.15087891 C50.3599173 7.25449636 35.65921872 7.22487723 21 5 C20.67 4.67 20.34 4.34 20 4 C16.54041557 3.71131944 13.08048569 3.55098503 9.61328125 3.37890625 C6.12830497 3.01345468 3.26492108 2.23876422 0 1 C0 0.67 0 0.34 0 0 Z " fill="#AAADEB" transform="translate(57,251)"/>
<path d="M0 0 C0 0.66 0 1.32 0 2 C-2.31 2.33 -4.62 2.66 -7 3 C-7 3.66 -7 4.32 -7 5 C-12.29411765 9 -12.29411765 9 -16 9 C-16.25007813 9.57105469 -16.50015625 10.14210938 -16.7578125 10.73046875 C-18.17328813 13.31660505 -19.85572909 15.1675009 -21.875 17.3125 C-28.21053841 24.37994176 -30.63054042 30.47371522 -33.0703125 39.59765625 C-33.93913386 42.7772504 -34.92807817 45.88383786 -36 49 C-36.33 49 -36.66 49 -37 49 C-36.09907074 35.71129347 -31.68052282 19.7908437 -21.36352539 10.53125 C-19.61128353 9.1887094 -17.82661345 7.92670891 -16 6.6875 C-15.39671875 6.25888672 -14.7934375 5.83027344 -14.171875 5.38867188 C-9.35978067 2.03589746 -5.89855572 0 0 0 Z " fill="#E7E8F9" transform="translate(84,26)"/>
<path d="M0 0 C7.324956 1.99771527 12.32744316 8.68320223 16 15 C16 15.66 16 16.32 16 17 C16.66 17 17.32 17 18 17 C18.62897727 18.83197263 19.25295914 20.66566053 19.875 22.5 C20.22304687 23.5209375 20.57109375 24.541875 20.9296875 25.59375 C23.0513908 32.34603205 24.29888675 38.17085065 24.1953125 45.21875 C24.1924826 45.96209595 24.18965271 46.70544189 24.18673706 47.47131348 C24.17566157 49.81438217 24.15058228 52.15704947 24.125 54.5 C24.11495381 56.10155693 24.10583085 57.70311993 24.09765625 59.3046875 C24.0757639 63.2032765 24.04132386 67.10157052 24 71 C23.67 71 23.34 71 23 71 C22.97494385 70.20416504 22.9498877 69.40833008 22.92407227 68.58837891 C22.80703014 64.93379832 22.68480038 61.27940825 22.5625 57.625 C22.52318359 56.37332031 22.48386719 55.12164062 22.44335938 53.83203125 C22.50717385 41.22054722 22.50717385 41.22054722 19.4375 29.1875 C18.04129036 26.09155688 17.69719621 24.33084172 18 21 C17.01 20.67 16.02 20.34 15 20 C13.31640625 17.671875 13.31640625 17.671875 11.5625 14.75 C7.56986579 7.42562635 7.56986579 7.42562635 1 3 C0.67 2.01 0.34 1.02 0 0 Z " fill="#DADCF6" transform="translate(209,117)"/>
<path d="M0 0 C5.38152134 -0.18816508 10.18394835 0.30733259 15.46313477 1.32128906 C35.09665984 5.05473711 55.07756801 5.30812194 75 6 C75 6.33 75 6.66 75 7 C69.63300481 7.07545523 64.26633363 7.12920203 58.89892578 7.16479492 C57.08181363 7.17966831 55.26473594 7.19997328 53.44775391 7.22631836 C42.28346527 7.38386643 31.72497955 6.83337895 20.75024414 4.70458984 C17.58783864 4.11044218 14.51624256 3.69271553 11.3125 3.4375 C7.32333755 3.10564593 3.80377282 2.2403607 0 1 C0 0.67 0 0.34 0 0 Z " fill="#9498E6" transform="translate(60,177)"/>
<path d="M0 0 C1.37478516 0.01740234 1.37478516 0.01740234 2.77734375 0.03515625 C3.69644531 0.04417969 4.61554687 0.05320313 5.5625 0.0625 C6.27277344 0.07410156 6.98304687 0.08570313 7.71484375 0.09765625 C7.71484375 0.75765625 7.71484375 1.41765625 7.71484375 2.09765625 C10.02484375 2.42765625 12.33484375 2.75765625 14.71484375 3.09765625 C10.71484375 4.09765625 10.71484375 4.09765625 -0.28515625 3.09765625 C-1.60515625 11.01765625 -2.92515625 18.93765625 -4.28515625 27.09765625 C-4.94515625 27.09765625 -5.60515625 27.09765625 -6.28515625 27.09765625 C-6.28515625 29.07765625 -6.28515625 31.05765625 -6.28515625 33.09765625 C-6.61515625 33.09765625 -6.94515625 33.09765625 -7.28515625 33.09765625 C-7.54809153 26.10018503 -6.54269648 19.54507661 -5.34765625 12.66015625 C-5.16525391 11.55994141 -4.98285156 10.45972656 -4.79492188 9.32617188 C-3.23427479 0.13821687 -3.23427479 0.13821687 0 0 Z " fill="#BABCEE" transform="translate(52.28515625,175.90234375)"/>
<path d="M0 0 C-5.82254243 1.96818336 -10.83381819 3.40214229 -17 3 C-17 3.66 -17 4.32 -17 5 C-23.4371657 5.02562964 -29.87431795 5.04298257 -36.31152344 5.05493164 C-38.49544771 5.05991997 -40.67936871 5.06671302 -42.86328125 5.07543945 C-54.61935872 5.12119342 -66.2879124 5.14994706 -78 4 C-78 3.67 -78 3.34 -78 3 C-77.38629044 3.00666183 -76.77258087 3.01332367 -76.14027405 3.02018738 C-69.66591717 3.0873324 -63.1916615 3.13212342 -56.71704102 3.16479492 C-54.31107557 3.1797428 -51.9051367 3.20010848 -49.49926758 3.22631836 C-35.60150974 3.37376701 -22.5920966 3.02915236 -9 0 C-3.39795918 -1.13265306 -3.39795918 -1.13265306 0 0 Z " fill="#E5E6F9" transform="translate(179,251)"/>
<path d="M0 0 C0.33 0 0.66 0 1 0 C1.02486464 5.12288059 1.04293752 10.24572542 1.05493164 15.36865234 C1.05993604 17.10856743 1.06674159 18.84847836 1.07543945 20.58837891 C1.08767662 23.10059642 1.09326739 25.61275794 1.09765625 28.125 C1.10281754 28.89303955 1.10797882 29.6610791 1.11329651 30.45239258 C1.11449212 42.16877657 -1.55319008 51.66984325 -7 62 C-8.15625 58.3046875 -8.15625 58.3046875 -6.75 55.5625 C-0.57785783 42.99778201 -0.83413734 28.13848684 -0.4375 14.4375 C-0.39420824 13.03319297 -0.35059096 11.62889594 -0.30664062 10.22460938 C-0.20123489 6.81649049 -0.09911018 3.4083068 0 0 Z " fill="#C4C6F1" transform="translate(233,158)"/>
<path d="M0 0 C0.66 0 1.32 0 2 0 C2 8.16816005 -2.01344152 12.81074652 -7 19 C-7.63808594 19.8765625 -8.27617187 20.753125 -8.93359375 21.65625 C-11.20916138 24.23723408 -13.14204093 25.38120306 -16.25 26.8125 C-17.58804688 27.44091797 -17.58804688 27.44091797 -18.953125 28.08203125 C-19.62859375 28.38496094 -20.3040625 28.68789062 -21 29 C-21 28.34 -21 27.68 -21 27 C-19.53125 25.87890625 -19.53125 25.87890625 -17.5 24.5625 C-9.14008596 18.4812174 -4.17835809 9.26068788 0 0 Z " fill="#E7E8F9" transform="translate(224,214)"/>
<path d="M0 0 C0.33 0 0.66 0 1 0 C1.02688151 1.64574566 1.04634123 3.29161413 1.0625 4.9375 C1.07410156 5.85402344 1.08570313 6.77054687 1.09765625 7.71484375 C1 10 1 10 0 11 C-0.36760731 13.32817964 -0.70241581 15.6618385 -1 18 C-7.43311296 18.09507063 -13.65758005 18.15316726 -20 17 C-20 16.34 -20 15.68 -20 15 C-24.95 14.67 -29.9 14.34 -35 14 C-35 13.67 -35 13.34 -35 13 C-27.83939034 12.82079809 -21.02401143 13.5074413 -13.9375 14.5 C-12.35291992 14.71462891 -12.35291992 14.71462891 -10.73632812 14.93359375 C-8.15677765 15.28375897 -5.57809875 15.63932837 -3 16 C-2.86722656 15.01257813 -2.73445313 14.02515625 -2.59765625 13.0078125 C-2.42105469 11.72648437 -2.24445313 10.44515625 -2.0625 9.125 C-1.88847656 7.84882812 -1.71445313 6.57265625 -1.53515625 5.2578125 C-1 2 -1 2 0 0 Z " fill="#E6E7F9" transform="translate(214,77)"/>
<path d="M0 0 C3.18057247 0.43371443 6.34603578 0.88012356 9.50390625 1.45898438 C17.72909349 2.95187302 25.91239831 3.61385055 34.25 4.125 C35.59248383 4.21168517 36.93493217 4.29892183 38.27734375 4.38671875 C41.51792414 4.5965405 44.75874848 4.80086345 48 5 C48 5.66 48 6.32 48 7 C43.66510701 7.0678505 39.33509843 7.05140433 35 7 C34.01290039 6.99129883 34.01290039 6.99129883 33.00585938 6.98242188 C21.37877395 6.81391339 11.06368933 4.50673662 0 1 C0 0.67 0 0.34 0 0 Z " fill="#CDCFF3" transform="translate(90,171)"/>
<path d="M0 0 C0 0.33 0 0.66 0 1 C-0.84481934 1.04487549 -1.68963867 1.08975098 -2.56005859 1.13598633 C-27.45365499 1.10509405 -27.45365499 1.10509405 -51 7 C-53.6723621 7.13415472 -56.32250488 7.04318541 -59 7 C-53.14276772 1.14276772 -40.88337282 1.35825749 -33 0.8125 C-31.39717163 0.69189209 -31.39717163 0.69189209 -29.76196289 0.56884766 C-19.83502828 -0.12227271 -9.9448833 -0.20000883 0 0 Z " fill="#E5E6F8" transform="translate(143,19)"/>
<path d="M0 0 C0.66 0.33 1.32 0.66 2 1 C1.67 2.65 1.34 4.3 1 6 C6.60898201 8.28724985 12.09334208 8.53617144 18.0625 8.9375 C26.64193749 9.58687198 34.70868925 10.61286639 43 13 C43 13.33 43 13.66 43 14 C34.66162276 13.60243622 26.57616501 13.09434617 18.3828125 11.39453125 C16.11328102 11.01875637 14.16292466 10.99490232 11.875 11.125 C6.90209306 10.96458365 3.36248651 9.26203004 -1 7 C-1.04254356 5.00045254 -1.04080783 2.99958364 -1 1 C-0.67 0.67 -0.34 0.34 0 0 Z " fill="#EAEBFA" transform="translate(129,89)"/>
<path d="M0 0 C6.97895569 0.9543871 13.71527746 2.99412214 20.50195312 4.828125 C25.66556066 6.20239237 30.68749136 7.40224938 36 8 C36 8.66 36 9.32 36 10 C23.70913039 9.21962733 11.55917769 6.20333734 0 2 C0 1.34 0 0.68 0 0 Z " fill="#9A9DE7" transform="translate(79,169)"/>
<path d="M0 0 C0.66 0.33 1.32 0.66 2 1 C0.37982158 2.33918806 -1.24629343 3.6711969 -2.875 5 C-3.77992187 5.7425 -4.68484375 6.485 -5.6171875 7.25 C-8 9 -8 9 -10 9 C-10.2475 9.721875 -10.495 10.44375 -10.75 11.1875 C-12.11384091 14.25614204 -13.90954861 16.38693577 -16 19 C-16.350625 19.9075 -16.70125 20.815 -17.0625 21.75 C-17.371875 22.4925 -17.68125 23.235 -18 24 C-18.99 24.33 -19.98 24.66 -21 25 C-20.22060233 17.82743496 -16.7982826 13.23793567 -12 8 C-8.49107206 5.33917948 -4.83879729 3.14540868 -1 1 C-0.67 0.67 -0.34 0.34 0 0 Z " fill="#A4A7E9" transform="translate(71,29)"/>
<path d="M0 0 C9.42810885 -0.40058733 18.68396659 3.09048115 27.09765625 7.1328125 C29.20834169 8.15015903 29.20834169 8.15015903 32.4375 9 C35 10 35 10 36.375 12.125 C36.58125 12.74375 36.7875 13.3625 37 14 C36.505 13.731875 36.01 13.46375 35.5 13.1875 C32.8412274 11.92458302 30.15139212 10.89389416 27.390625 9.87890625 C25.35190903 9.12937832 23.32323105 8.35263984 21.296875 7.5703125 C16.92496256 5.92906524 12.48692368 4.59947724 8 3.3125 C7.22527344 3.08755859 6.45054687 2.86261719 5.65234375 2.63085938 C3.76903154 2.08446633 1.88462976 1.54183106 0 1 C0 0.67 0 0.34 0 0 Z " fill="#E0E1F7" transform="translate(172,103)"/>
<path d="M0 0 C1.39977394 3.75353395 0.54952574 6.00569898 -0.8125 9.6875 C-3.77608326 18.11838342 -5.29381362 26.09833488 -6 35 C-6.33 35 -6.66 35 -7 35 C-7.34541495 21.85504229 -6.56602616 11.5531987 0 0 Z " fill="#BEC0EF" transform="translate(51,53)"/>
<path d="M0 0 C0.33 0 0.66 0 1 0 C1.14684073 5.86695451 0.64337532 11.2900745 -0.375 17.0625 C-0.50132813 17.82626953 -0.62765625 18.59003906 -0.7578125 19.37695312 C-1.55356258 24.02811237 -2.68060286 28.46457234 -4 33 C-4.5949918 35.6358599 -5.11463282 38.28411146 -5.625 40.9375 C-5.7590625 41.62134766 -5.893125 42.30519531 -6.03125 43.00976562 C-6.35685049 44.67265383 -6.67881344 46.33625361 -7 48 C-7.33 48 -7.66 48 -8 48 C-8.24856408 41.41305198 -7.31547023 35.44402648 -6 29 C-5.80921875 28.03449219 -5.6184375 27.06898438 -5.421875 26.07421875 C-4.95464658 23.71471522 -4.48056564 21.35681661 -4 19 C-3.34 19 -2.68 19 -2 19 C-1.93941406 18.21496094 -1.87882812 17.42992187 -1.81640625 16.62109375 C-1.37179786 11.04638852 -0.87875357 5.52359384 0 0 Z " fill="#DDDEF7" transform="translate(50,184)"/>
<path d="M0 0 C0.4125 0.556875 0.825 1.11375 1.25 1.6875 C2.51049933 3.35315983 3.83129031 4.97379722 5.1875 6.5625 C7 9 7 9 7 12 C7.85851563 12.37318359 7.85851563 12.37318359 8.734375 12.75390625 C11.33500678 14.18425373 13.14746599 15.84664674 15.25 17.9375 C15.95640625 18.62714844 16.6628125 19.31679687 17.390625 20.02734375 C19 22 19 22 19 25 C13.54375736 24.09853382 11.17758701 20.23466004 8 16 C0 4.10507881 0 4.10507881 0 0 Z " fill="#AFB1EC" transform="translate(47,137)"/>
<path d="M0 0 C1.31941123 3.95823369 0.17208128 6.62014439 -1.0625 10.4375 C-1.28639404 11.14455078 -1.51028809 11.85160156 -1.7409668 12.58007812 C-3.87361308 19.06648123 -6.70230499 25.01655339 -10 31 C-10.99 31 -11.98 31 -13 31 C-11.46810734 26.93781696 -9.5665982 23.16123052 -7.5625 19.3125 C-4.99099083 14.29136669 -2.93742922 9.35574209 -1.5078125 3.890625 C-1 2 -1 2 0 0 Z " fill="#9598E6" transform="translate(234,197)"/>
<path d="M0 0 C2.97983024 0.11519181 5.95845792 0.24190802 8.9375 0.375 C9.76830078 0.4059375 10.59910156 0.436875 11.45507812 0.46875 C18.28403692 0.78761189 24.6459411 1.85961997 31.125 4.0625 C34.39514403 5.12885131 37.59914944 5.53321659 41 6 C42 7 42 7 42.09765625 8.84765625 C42.06510417 10.8984375 42.03255208 12.94921875 42 15 C41.67 15 41.34 15 41 15 C40.505 11.535 40.505 11.535 40 8 C38.51886719 7.81824219 38.51886719 7.81824219 37.0078125 7.6328125 C35.72648437 7.46523438 34.44515625 7.29765625 33.125 7.125 C31.84882813 6.96257813 30.57265625 6.80015625 29.2578125 6.6328125 C26 6 26 6 24 4 C21.93962601 3.57101971 21.93962601 3.57101971 19.5703125 3.4375 C18.69246094 3.36273437 17.81460938 3.28796875 16.91015625 3.2109375 C15.99105469 3.14132813 15.07195312 3.07171875 14.125 3 C12.31451167 2.86171659 10.50456231 2.71614054 8.6953125 2.5625 C7.89109863 2.50191406 7.08688477 2.44132812 6.25830078 2.37890625 C3.85094788 1.97499147 2.11497793 1.19576434 0 0 Z " fill="#C7C9F2" transform="translate(181,21)"/>
<path d="M0 0 C1.8270966 2.68690677 2.00271536 3.96890357 1.71484375 7.265625 C1.47894531 8.49796875 1.24304688 9.7303125 1 11 C0.77441406 12.27359375 0.54882812 13.5471875 0.31640625 14.859375 C0.06761719 16.14328125 -0.18117187 17.4271875 -0.4375 18.75 C-0.68371094 20.04421875 -0.92992187 21.3384375 -1.18359375 22.671875 C-2 26 -2 26 -4 29 C-7.625 29.1875 -7.625 29.1875 -11 29 C-11.33 28.34 -11.66 27.68 -12 27 C-9.36 27 -6.72 27 -4 27 C-4.04125 25.989375 -4.0825 24.97875 -4.125 23.9375 C-4.0203024 20.6395257 -3.57457752 18.27190156 -2.578125 15.17578125 C-1.26143964 10.22041811 -0.71678217 5.07085258 0 0 Z " fill="#B4B6ED" transform="translate(217,68)"/>
<path d="M0 0 C5.74545419 1.55409826 11.05877039 3.30514146 16.30859375 6.1328125 C18.16846179 7.14027743 18.16846179 7.14027743 21 8 C21 8.66 21 9.32 21 10 C21.66 10.33 22.32 10.66 23 11 C14.61613153 10.11748753 7.11206661 6.32908402 0 2 C0 1.34 0 0.68 0 0 Z " fill="#D4D5F5" transform="translate(66,160)"/>
<path d="M0 0 C0 0.66 0 1.32 0 2 C-2.31 2.33 -4.62 2.66 -7 3 C-7 3.66 -7 4.32 -7 5 C-7.60328125 5.32613281 -8.2065625 5.65226562 -8.828125 5.98828125 C-10.02695313 6.64376953 -10.02695313 6.64376953 -11.25 7.3125 C-12.03890625 7.74175781 -12.8278125 8.17101563 -13.640625 8.61328125 C-16.03172974 9.9534484 -16.03172974 9.9534484 -18.171875 11.66796875 C-20 13 -20 13 -22 13 C-22.66 14.32 -23.32 15.64 -24 17 C-24 14 -24 14 -22.125 11.75 C-16.00259165 5.99493615 -8.65536735 0 0 0 Z " fill="#D7D9F5" transform="translate(84,26)"/>
<path d="M0 0 C5.43116857 -0.3620779 9.73162041 0.6726313 14.93359375 2.19921875 C20.21226905 3.57772631 25.59937178 4.27018538 31 5 C31 5.33 31 5.66 31 6 C24.24478008 6.20574274 18.16718959 5.50566899 11.5625 4.125 C10.66595703 3.95097656 9.76941406 3.77695313 8.84570312 3.59765625 C2.25709555 2.25709555 2.25709555 2.25709555 0 0 Z " fill="#E8E9F9" transform="translate(87,169)"/>
<path d="M0 0 C4.71399593 3.42836068 8.23248664 7.60758659 12 12 C15.00880467 15.37350827 17.87815483 17.12643401 22 19 C22 19.66 22 20.32 22 21 C16.91443506 19.69886862 14.31992226 17.74286192 10.75 13.9375 C7.70623282 10.52639958 7.70623282 10.52639958 4 8 C2.25160484 5.34243936 1.00872518 3.02617555 0 0 Z " fill="#DDDEF6" transform="translate(50,141)"/>
<path d="M0 0 C0.66 0.33 1.32 0.66 2 1 C1.01 1.33 0.02 1.66 -1 2 C-1.33 2.99 -1.66 3.98 -2 5 C-2.66 5 -3.32 5 -4 5 C-4 5.66 -4 6.32 -4 7 C-5.4096347 7.70180531 -6.82807641 8.38593958 -8.25 9.0625 C-9.03890625 9.44535156 -9.8278125 9.82820312 -10.640625 10.22265625 C-13.25993522 11.08564091 -14.44855176 10.93045933 -17 10 C-15.8553125 9.5978125 -15.8553125 9.5978125 -14.6875 9.1875 C-12.0435909 8.2160222 -12.0435909 8.2160222 -10.6171875 6.59765625 C-8.71772509 4.7211342 -6.76453053 3.55344379 -4.4375 2.25 C-3.65246094 1.80140625 -2.86742187 1.3528125 -2.05859375 0.890625 C-1.37925781 0.59671875 -0.69992188 0.3028125 0 0 Z " fill="#C6C8F1" transform="translate(211,238)"/>
<path d="M0 0 C5.65534392 -0.18243045 10.58187132 0.20088922 16.09375 1.421875 C22.00969487 2.59870274 28.01765824 3.25021317 34 4 C34 4.33 34 4.66 34 5 C27.56688704 5.09507063 21.34241995 5.15316726 15 4 C15 3.34 15 2.68 15 2 C10.05 1.67 5.1 1.34 0 1 C0 0.67 0 0.34 0 0 Z " fill="#DADBF6" transform="translate(179,90)"/>
<path d="M0 0 C0.33 0 0.66 0 1 0 C1.20352339 5.2305512 0.53064327 9.80302665 -0.875 14.8125 C-1.04902344 15.47958984 -1.22304687 16.14667969 -1.40234375 16.83398438 C-2.22755675 19.86282173 -2.74435162 21.74435162 -5 24 C-4.41640925 15.68383188 -2.26200586 7.98540674 0 0 Z " fill="#E8E8F9" transform="translate(231,190)"/>
<path d="M0 0 C0.66 0 1.32 0 2 0 C2 8.14449701 -2.01233491 12.8193854 -7 19 C-7 15.35029521 -5.88414857 14.08029062 -4 11 C-3.22535596 9.08022999 -2.49533154 7.14181097 -1.8125 5.1875 C-1.46832031 4.21167969 -1.12414062 3.23585937 -0.76953125 2.23046875 C-0.51558594 1.49441406 -0.26164063 0.75835937 0 0 Z " fill="#DBDDF6" transform="translate(224,214)"/>
<path d="M0 0 C4.22489602 0.53280216 6.54080716 1.87678199 9.8125 4.5625 C10.60269531 5.20316406 11.39289063 5.84382813 12.20703125 6.50390625 C12.79871094 6.99761719 13.39039063 7.49132812 14 8 C13.67 9.32 13.34 10.64 13 12 C11.58191941 10.75160427 10.16560005 9.50120779 8.75 8.25 C7.96109375 7.55390625 7.1721875 6.8578125 6.359375 6.140625 C4.16988144 4.15413084 2.07098715 2.10898692 0 0 Z " fill="#A6A9EA" transform="translate(207,114)"/>
<path d="M0 0 C7.13393752 0.51537952 14.01812817 1.44005901 21 3 C21 3.33 21 3.66 21 4 C14.20160929 4.31620422 7.69016016 3.12676382 1 2 C1 2.99 1 3.98 1 5 C0.34 5 -0.32 5 -1 5 C-0.67 3.35 -0.34 1.7 0 0 Z " fill="#DEDFF7" transform="translate(52,178)"/>
<path d="M0 0 C0.64453125 1.796875 0.64453125 1.796875 1 4 C-1.3125 7.25 -1.3125 7.25 -4 10 C-4.66 10 -5.32 10 -6 10 C-6.33 10.99 -6.66 11.98 -7 13 C-7.99 12.67 -8.98 12.34 -10 12 C-9.195625 11.2575 -9.195625 11.2575 -8.375 10.5 C-5.26423073 7.22550604 -2.65551847 3.64691203 0 0 Z " fill="#A3A6E9" transform="translate(220,228)"/>
<path d="M0 0 C0 0.66 0 1.32 0 2 C-5.48675196 3.86783046 -10.22192976 4.2358396 -16 4 C-16 3.67 -16 3.34 -16 3 C-14.01432292 2.51171875 -12.02864583 2.0234375 -10.04296875 1.53515625 C-6.46666836 0.59834334 -3.72857313 -0.10077225 0 0 Z " fill="#B3B5ED" transform="translate(186,251)"/>
<path d="M0 0 C0.33 0 0.66 0 1 0 C0.53898164 4.70238725 -0.03176403 8.23262357 -3 12 C-3.99 12 -4.98 12 -6 12 C-4.43358249 7.69235185 -2.31663844 3.93828536 0 0 Z " fill="#9FA2E8" transform="translate(227,216)"/>
<path d="M0 0 C4.56454251 0.54339792 7.9728176 1.79463821 12 4 C12 4.66 12 5.32 12 6 C12.99 6 13.98 6 15 6 C15 6.66 15 7.32 15 8 C11.02990501 6.82701739 8.25102569 5.51692311 5 3 C3.35202764 2.28837557 1.68834592 1.60968047 0 1 C0 0.67 0 0.34 0 0 Z " fill="#979BE6" transform="translate(194,106)"/>
<path d="M0 0 C1.49828872 3.88235819 0.43110582 6.43449288 -0.9375 10.25 C-1.31777344 11.32765625 -1.69804688 12.4053125 -2.08984375 13.515625 C-2.39019531 14.33546875 -2.69054688 15.1553125 -3 16 C-4.29302919 12.37089807 -3.68677944 9.96054037 -2.625 6.3125 C-2.34914062 5.33925781 -2.07328125 4.36601563 -1.7890625 3.36328125 C-1 1 -1 1 0 0 Z " fill="#CBCCF2" transform="translate(51,53)"/>
<path d="M0 0 C-0.66 0 -1.32 0 -2 0 C-2 0.66 -2 1.32 -2 2 C-8.28571429 4.42857143 -8.28571429 4.42857143 -12 3 C-11.34 3 -10.68 3 -10 3 C-10 2.34 -10 1.68 -10 1 C-3.71428571 -1.42857143 -3.71428571 -1.42857143 0 0 Z " fill="#9C9FE8" transform="translate(196,250)"/>
<path d="M0 0 C3.18706942 1.43561686 5.62169105 3.20266329 8.25 5.5 C8.95640625 6.1084375 9.6628125 6.716875 10.390625 7.34375 C12 9 12 9 12 11 C8.20527027 10.45550236 6.72968732 8.96207612 4.3125 6.0625 C3.71050781 5.35222656 3.10851563 4.64195312 2.48828125 3.91015625 C1 2 1 2 0 0 Z " fill="#9B9EE7" transform="translate(54,151)"/>
<path d="M0 0 C3.37881434 1.39813007 5.15017878 2.82887791 7 6 C7.6875 9.25 7.6875 9.25 8 12 C4.74451247 8.97704729 2.31022942 5.79537691 0 2 C0 1.34 0 0.68 0 0 Z " fill="#E1E2F7" transform="translate(218,126)"/>
<path d="M0 0 C1.98 0.66 3.96 1.32 6 2 C6 2.66 6 3.32 6 4 C7.2065625 4.185625 7.2065625 4.185625 8.4375 4.375 C9.7059375 4.684375 9.7059375 4.684375 11 5 C11.33 5.66 11.66 6.32 12 7 C7.24518354 6.42365861 4.02951788 4.44931479 0 2 C0 1.34 0 0.68 0 0 Z " fill="#BEC0F0" transform="translate(66,160)"/>
<path d="M0 0 C0 0.66 0 1.32 0 2 C-1.4096347 2.70180531 -2.82807641 3.38593958 -4.25 4.0625 C-5.03890625 4.44535156 -5.8278125 4.82820312 -6.640625 5.22265625 C-9.25993522 6.08564091 -10.44855176 5.93045933 -13 5 C-11.21046815 4.16209211 -9.41830305 3.32980604 -7.625 2.5 C-6.62726563 2.0359375 -5.62953125 1.571875 -4.6015625 1.09375 C-2 0 -2 0 0 0 Z " fill="#B1B4ED" transform="translate(207,243)"/>
<path d="M0 0 C3 1 3 1 4.75 3.8125 C5.98589446 6.96403086 6.28222189 7.96929372 5 11 C4.34 9.02 3.68 7.04 3 5 C2.34 5 1.68 5 1 5 C0.67 3.35 0.34 1.7 0 0 Z " fill="#9CA0E8" transform="translate(227,135)"/>
<path d="M0 0 C4.55712436 0.5425148 8.02568234 1.6893502 12 4 C12.33 4.66 12.66 5.32 13 6 C8.52761347 4.58192622 4.28853694 2.88695626 0 1 C0 0.67 0 0.34 0 0 Z " fill="#B7BAEE" transform="translate(190,106)"/>
<path d="M0 0 C0.66 0 1.32 0 2 0 C2.04125 0.61875 2.0825 1.2375 2.125 1.875 C2.41375 2.57625 2.7025 3.2775 3 4 C5.99615946 5.3045656 5.99615946 5.3045656 9 6 C9 6.33 9 6.66 9 7 C3.375 7.25 3.375 7.25 0 5 C-0.1875 2.375 -0.1875 2.375 0 0 Z " fill="#EEEEFB" transform="translate(41,240)"/>
<path d="M0 0 C0.66 0 1.32 0 2 0 C0.87204037 4.10899581 -0.33510818 8.07561214 -2 12 C-3.12377697 8.69564916 -2.89554742 6.9493138 -1.5625 3.75 C-1.27503906 3.04359375 -0.98757812 2.3371875 -0.69140625 1.609375 C-0.46324219 1.07828125 -0.23507813 0.5471875 0 0 Z " fill="#969AE6" transform="translate(48,54)"/>
<path d="M0 0 C1.9375 0.625 1.9375 0.625 4 2 C4.75 5.125 4.75 5.125 5 8 C2.20127563 5.47211993 0.54226981 3.79588866 0 0 Z " fill="#A8ABEA" transform="translate(221,126)"/>
</svg>
